<svg width="22" height="22" viewBox="0 0 22 22" fill="none" xmlns="http://www.w3.org/2000/svg">
<path fill-rule="evenodd" clip-rule="evenodd" d="M8.56695 0C8.65949 0 9.44884 0.00428201 10.3198 0.00963452C11.1908 0.014987 13.0134 0.0267626 14.37 0.0363971C15.7266 0.0449611 16.897 0.0545956 16.9721 0.0567366C17.0472 0.0599482 17.1452 0.0674417 17.1899 0.0749352C17.2345 0.0813582 17.3325 0.101698 17.4076 0.119896C17.4827 0.137024 17.6025 0.173421 17.6743 0.200184C17.7462 0.225876 17.8442 0.267626 17.8921 0.290106C17.94 0.313657 18.014 0.352195 18.0554 0.375746C18.0968 0.399298 18.149 0.429272 18.1697 0.443188C18.1904 0.456034 18.259 0.499925 18.3222 0.539533C18.3853 0.580213 18.48 0.644443 18.5345 0.682981C18.5889 0.720448 18.7185 0.816794 18.823 0.897081C18.9275 0.976299 19.0897 1.10155 19.1823 1.17541C19.2748 1.24928 19.4414 1.38416 19.5524 1.47515C19.6635 1.56615 19.7854 1.66784 19.8235 1.69996C19.8616 1.73314 19.9444 1.80487 20.0086 1.86053C20.0718 1.91513 20.1676 1.9997 20.222 2.04787C20.2765 2.09497 20.3962 2.20524 20.4888 2.29088C20.5813 2.37759 20.7065 2.49855 20.7664 2.55957C20.8263 2.62059 20.9025 2.69874 20.9352 2.73406C20.9689 2.76939 21.0473 2.85824 21.1104 2.93211C21.1736 3.00597 21.2661 3.11837 21.3162 3.18368C21.3663 3.24898 21.4327 3.33997 21.4643 3.38707C21.4959 3.43417 21.5416 3.51339 21.5677 3.5637C21.5928 3.61402 21.6254 3.68788 21.6396 3.72963C21.6537 3.77138 21.6755 3.8506 21.6875 3.90626C21.7103 4.00796 21.7103 4.02081 21.7093 9.76727C21.7082 12.9349 21.7049 15.5673 21.7016 15.6176C21.6984 15.6679 21.6886 15.7546 21.6788 15.8103C21.6701 15.8659 21.6505 15.9526 21.6363 16.0029C21.6222 16.0533 21.6047 16.1079 21.5971 16.1261C21.5906 16.1443 21.571 16.1881 21.5536 16.2245C21.5372 16.262 21.5231 16.2941 21.5231 16.2973C21.5231 16.3005 21.5024 16.338 21.4774 16.3798C21.4523 16.4226 21.4066 16.4922 21.3772 16.5328C21.3467 16.5735 21.2934 16.642 21.2563 16.6827C21.2204 16.7234 21.154 16.7919 21.1094 16.8326C21.0647 16.8743 20.9885 16.9375 20.9406 16.9728C20.8927 17.0081 20.8219 17.0563 20.7827 17.0809C20.7435 17.1045 20.6706 17.1462 20.6194 17.173C20.5682 17.1998 20.4833 17.2394 20.4289 17.2608C20.3744 17.2822 20.2873 17.3143 20.2329 17.3314C20.1785 17.3486 20.0957 17.3721 20.0478 17.3839C19.9999 17.3957 19.8998 17.4149 19.8246 17.4267C19.7027 17.4471 19.6232 17.4513 19.0788 17.4588C18.7435 17.4642 17.8834 17.4685 17.1681 17.4685C16.4528 17.4695 15.7669 17.4727 15.4228 17.4856L15.4304 17.598C15.4337 17.6601 15.4413 17.7853 15.4479 17.8763C15.4533 17.9673 15.4631 18.1771 15.4696 18.342C15.4751 18.5069 15.4816 18.8901 15.4827 19.193C15.4849 19.6758 15.4827 19.7572 15.4664 19.8514C15.4555 19.9103 15.4348 20.0013 15.4195 20.0548C15.4043 20.1083 15.3738 20.194 15.3531 20.2475C15.3324 20.301 15.2976 20.3781 15.2758 20.4188C15.2551 20.4594 15.2105 20.5344 15.1778 20.5847C15.1452 20.635 15.094 20.7067 15.0635 20.7453C15.033 20.7838 14.971 20.8523 14.9253 20.8994C14.8806 20.9455 14.8022 21.0183 14.7511 21.0611C14.6999 21.1028 14.6171 21.1671 14.566 21.2013C14.5148 21.2366 14.4342 21.2869 14.3863 21.3137C14.3384 21.3405 14.2557 21.3833 14.2012 21.4079C14.1468 21.4325 14.0488 21.4721 13.9835 21.4946C13.9182 21.5171 13.8147 21.5482 13.7548 21.5631C13.695 21.5781 13.597 21.5985 13.5371 21.607C13.4772 21.6167 13.4043 21.6274 13.3738 21.6316C13.3444 21.6359 12.2339 21.6381 10.9078 21.637C9.58167 21.6349 8.06068 21.6295 7.52719 21.6231C6.99371 21.6177 5.53478 21.6102 4.28272 21.607C2.7944 21.6027 1.9713 21.5974 1.9038 21.5899C1.84718 21.5835 1.7492 21.5674 1.68605 21.5535C1.6229 21.5396 1.52274 21.5118 1.46285 21.4914C1.40297 21.4711 1.3322 21.4454 1.30499 21.4347C1.27777 21.424 1.20482 21.3886 1.14167 21.3576C1.07852 21.3255 0.983804 21.2709 0.929366 21.2356C0.876017 21.1992 0.794361 21.1414 0.749722 21.106C0.705084 21.0707 0.639759 21.015 0.604919 20.9819C0.56899 20.9487 0.511286 20.8855 0.474269 20.8416C0.437251 20.7977 0.404589 20.7592 0.401322 20.756C0.396967 20.7528 0.371926 20.7185 0.343619 20.6778C0.315311 20.6382 0.267406 20.5611 0.235832 20.5066C0.204259 20.453 0.162886 20.3695 0.1422 20.3224C0.122602 20.2753 0.093206 20.1961 0.0779635 20.1458C0.062721 20.0955 0.040946 20.012 0.027881 19.9585C0.010461 19.8814 0.00501723 19.8086 0.000662232 19.5891C-0.00151527 19.4393 0.00175098 16.9364 0.00937223 14.0279C0.0169935 11.1193 0.0267922 8.08658 0.0311472 7.28905C0.0387685 6.09116 0.0431235 5.82246 0.0561885 5.74753C0.0648985 5.69722 0.0823185 5.618 0.0942948 5.5709C0.10736 5.52379 0.130224 5.44886 0.146555 5.40497C0.161797 5.36108 0.200992 5.27437 0.232566 5.21228C0.263051 5.15019 0.309867 5.06883 0.335997 5.03029C0.362127 4.99175 0.410032 4.92752 0.443784 4.88577C0.476446 4.84403 0.548304 4.76802 0.601652 4.71556C0.65609 4.66311 0.747545 4.58817 0.80416 4.54857C0.860775 4.50896 0.942431 4.45757 0.983804 4.43402C1.02627 4.41047 1.10683 4.37086 1.16345 4.34624C1.22006 4.32055 1.31805 4.28415 1.3812 4.26488C1.44435 4.24561 1.53036 4.22206 1.57173 4.21136C1.61419 4.20172 1.71218 4.18353 1.78948 4.17175C1.92231 4.15248 2.01158 4.15034 3.20485 4.1407C3.90601 4.13535 4.88371 4.12786 5.37909 4.12358C5.87338 4.11822 6.28057 4.11287 6.28384 4.10966C6.28711 4.10645 6.28493 4.01224 6.28057 3.90091C6.27513 3.78958 6.26533 3.47378 6.2588 3.19973C6.25118 2.92568 6.24791 2.47607 6.25009 2.19881C6.25444 1.73957 6.25662 1.68604 6.27731 1.58863C6.29037 1.52975 6.30888 1.45481 6.31868 1.4227C6.32848 1.39058 6.35134 1.32528 6.36985 1.27818C6.38945 1.23108 6.42647 1.15186 6.4526 1.10155C6.47982 1.05123 6.52881 0.972017 6.56147 0.924914C6.59413 0.877812 6.64857 0.80823 6.68232 0.769692C6.71607 0.732224 6.75309 0.690474 6.76507 0.678699C6.77704 0.666923 6.81624 0.630526 6.85326 0.598411C6.88918 0.566296 6.9556 0.512771 7.00024 0.479585C7.04488 0.44747 7.12762 0.391804 7.18424 0.357548C7.24085 0.323292 7.33448 0.274049 7.3911 0.247286C7.44771 0.221594 7.55332 0.178774 7.62518 0.154152C7.69704 0.12846 7.807 0.0963452 7.87015 0.0813582C7.9333 0.0663712 8.03128 0.0460316 8.0879 0.0374676C8.14451 0.0278331 8.23815 0.0160575 8.29476 0.010705C8.35138 0.00642302 8.47441 0.0010705 8.56695 0V0ZM16.3864 1.91941L16.3624 1.9633V4.43616C16.4016 4.49397 16.4299 4.5218 16.4506 4.53358C16.4713 4.54643 16.505 4.55927 16.5257 4.56248C16.5464 4.56569 17.2247 4.56998 18.0336 4.57105C19.302 4.57426 19.5078 4.57212 19.5339 4.55927C19.5513 4.55071 19.5677 4.53358 19.5709 4.5218C19.5742 4.51003 19.5688 4.48541 19.5601 4.46828C19.5503 4.45115 19.5143 4.4094 19.4795 4.37621C19.4447 4.34303 19.3989 4.30235 19.3772 4.28522C19.3554 4.26809 19.2574 4.1846 19.1583 4.09896C19.0592 4.01331 18.8937 3.87094 18.7903 3.78316C18.6858 3.6943 18.5758 3.6001 18.5453 3.57334C18.5159 3.54658 18.3788 3.42882 18.2405 3.31106C18.1022 3.19438 17.8921 3.01347 17.7712 2.9107C17.6515 2.80793 17.3891 2.58312 17.1888 2.41184C16.9895 2.24056 16.7761 2.05858 16.7162 2.00719C16.6564 1.95581 16.5878 1.90335 16.5638 1.88944C16.5399 1.87552 16.5061 1.8616 16.4876 1.85946C16.4691 1.85625 16.4451 1.85839 16.4321 1.86482C16.4201 1.87017 16.3994 1.89479 16.3864 1.91941ZM8.72264 2.13458C8.70958 2.15278 8.69324 2.18383 8.68671 2.20417C8.67909 2.22986 8.66929 3.00383 8.65949 4.59139C8.65078 5.88348 8.63554 8.06624 8.62574 9.44076C8.61703 10.8153 8.60506 12.6608 8.59961 13.5408C8.59308 14.5364 8.59417 15.1605 8.6007 15.1915C8.60614 15.2204 8.61921 15.2557 8.62901 15.2718C8.63881 15.2889 8.66167 15.3178 8.68018 15.3371C8.69869 15.3564 8.72808 15.3821 8.74659 15.3928C8.76401 15.4045 8.80321 15.4174 8.83369 15.4238C8.86853 15.4302 10.7553 15.4302 14.0216 15.4238L19.155 15.4131C19.2421 15.3714 19.2748 15.3457 19.2911 15.3221C19.3184 15.2825 19.3184 15.2793 19.3249 14.971C19.3292 14.7997 19.3401 14.2859 19.3499 13.8298C19.3597 13.3738 19.375 12.6576 19.3848 12.2401C19.3935 11.8226 19.4076 11.0808 19.4163 10.5916C19.4251 10.1034 19.4338 9.66236 19.437 9.61204C19.4403 9.56173 19.4457 9.35941 19.449 9.16243C19.4523 8.96546 19.4599 8.5576 19.4653 8.25786C19.4708 7.95812 19.4806 7.51921 19.4871 7.2837C19.4969 6.88333 19.4958 6.85229 19.4784 6.81268C19.4675 6.78913 19.4403 6.75487 19.4163 6.73774L19.375 6.70563L14.8654 6.69385C14.6966 6.64996 14.6204 6.62534 14.5877 6.61142C14.5551 6.59858 14.4963 6.57075 14.4571 6.55041C14.4103 6.52578 14.3504 6.47761 14.2818 6.41124C14.1925 6.32346 14.1707 6.29563 14.1272 6.20785C14.0945 6.14255 14.0684 6.06868 14.0521 5.9991L14.0281 5.89205L14.0161 2.25234C13.965 2.17098 13.9388 2.14208 13.9236 2.13458C13.9084 2.12709 13.8822 2.11853 13.8637 2.11424C13.8452 2.11103 13.2704 2.10354 12.5844 2.09819C11.8985 2.09176 10.7717 2.08427 10.0803 2.08106C9.07648 2.07678 8.81518 2.07892 8.7847 2.08962C8.76401 2.09711 8.73571 2.11745 8.72264 2.13458ZM2.66048 6.13826C2.52983 6.20463 2.47648 6.24424 2.44491 6.27636C2.41551 6.30633 2.3774 6.35986 2.35998 6.39518C2.34256 6.43051 2.32406 6.48832 2.31861 6.52364C2.31317 6.55897 2.30555 6.9679 2.30119 7.43357C2.29793 7.89924 2.2903 8.52548 2.28486 8.82522C2.27942 9.12497 2.2718 9.61204 2.26853 9.90643C2.26417 10.2008 2.25764 10.8174 2.2522 11.2767C2.24675 11.7359 2.23478 12.6994 2.22607 13.4177C2.21627 14.136 2.20103 15.3018 2.19123 16.0083C2.18252 16.7148 2.17054 17.6783 2.1651 18.1493C2.15857 18.7028 2.15857 19.0293 2.1651 19.0721C2.17163 19.1128 2.19014 19.1641 2.21083 19.2005C2.23042 19.2348 2.26635 19.2819 2.2903 19.3054C2.31426 19.329 2.36107 19.3643 2.39374 19.3825C2.43837 19.4082 2.47648 19.42 2.54072 19.4286C2.59842 19.435 4.34804 19.4446 7.64696 19.4553C10.5245 19.4639 12.6911 19.4671 12.726 19.4617C12.7586 19.4564 12.8163 19.4371 12.8534 19.4189C12.8915 19.4007 12.9426 19.3654 12.9677 19.3397C12.9938 19.314 13.0276 19.2701 13.0428 19.2401C13.058 19.2112 13.0776 19.1631 13.0853 19.1342C13.0972 19.0903 13.0972 18.98 13.0864 18.4972C13.0798 18.1761 13.0711 17.8795 13.0689 17.8389C13.0657 17.7907 13.0559 17.7521 13.0417 17.7286C13.0286 17.7093 12.9971 17.6826 12.9655 17.6676L12.9111 17.6408C12.3917 17.6579 11.7929 17.6697 11.2453 17.6783C10.6976 17.6868 9.9649 17.6943 9.61759 17.6943C9.27028 17.6943 8.84676 17.689 8.67582 17.6836C8.43848 17.6751 8.32307 17.6665 8.18589 17.6462C8.08681 17.6301 7.98447 17.6119 7.95725 17.6044C7.93003 17.5959 7.86144 17.5766 7.80482 17.5605C7.74821 17.5434 7.6622 17.5145 7.61429 17.4963C7.56639 17.477 7.4978 17.4481 7.46187 17.4331C7.42594 17.4171 7.3519 17.3796 7.29856 17.3486C7.24412 17.3186 7.16899 17.2726 7.1298 17.2458C7.0906 17.2201 7.03399 17.1794 7.00459 17.1559C6.97411 17.1323 6.90443 17.0692 6.8489 17.0156C6.79229 16.9621 6.71172 16.8754 6.66817 16.8219C6.62571 16.7684 6.56692 16.6902 6.53861 16.6474C6.5103 16.6056 6.46131 16.5157 6.42973 16.4493C6.39707 16.384 6.35788 16.2931 6.34263 16.2492C6.3263 16.2053 6.30344 16.1303 6.29037 16.0832C6.27731 16.0361 6.25662 15.9419 6.24465 15.8745C6.22287 15.7524 6.22287 15.731 6.21634 10.9983L6.20981 6.24531C6.17388 6.18644 6.1423 6.15967 6.11617 6.14683L6.06827 6.12221C4.54946 6.12649 3.78298 6.1297 3.3845 6.13291L2.66048 6.13826Z" fill="black"/>
</svg>
