<svg width="25" height="24" viewBox="0 0 25 24" fill="none" xmlns="http://www.w3.org/2000/svg">
    <path d="M0.5 20.8633L10.6455 10.7177L13.7823 13.8545L3.63675 24L0.5 20.8633Z" fill="black"/>
    <path d="M15.6547 5.71094L11.6494 9.71676L14.7866 12.854L18.7924 8.84867L15.6547 5.71094Z" fill="black"/>
    <path d="M7.54524 9.74868L9.26858 6.59768L12.4196 4.87434L9.26858 3.151L7.54524 0L5.8219 3.151L2.6709 4.87434L5.8219 6.59768L7.54524 9.74868Z" fill="black"/>
    <path d="M20.3847 8.23818L21.841 5.57537L24.5039 4.11911L21.841 2.66281L20.3847 0L18.9284 2.66281L16.2656 4.11911L18.9284 5.57537L20.3847 8.23818Z" fill="black"/>
    <path d="M20.3847 10.9512L18.9284 13.614L16.2656 15.0703L18.9284 16.5265L20.3847 19.1894L21.841 16.5265L24.5039 15.0703L21.841 13.614L20.3847 10.9512Z" fill="black"/>
</svg>
