<svg width="26" height="26" viewBox="0 0 26 26" fill="none" xmlns="http://www.w3.org/2000/svg">
    <path fill-rule="evenodd" clip-rule="evenodd" d="M14.7476 17.2505C13.4253 15.9282 12.1123 16.4439 10.9766 17.8058L5.79309 24.0224C4.73148 25.2955 2.90158 25.295 1.80333 24.1967C0.70509 23.0985 0.704554 21.2686 1.97767 20.207L8.19426 15.0234C9.55616 13.8878 10.0718 12.5748 8.74952 11.2525C7.88645 10.3894 7.88645 8.97707 8.74952 8.11399L15.8635 1L25 10.1366L17.8861 17.2505C17.023 18.1136 15.6106 18.1136 14.7476 17.2505Z" stroke="black" stroke-width="1.5" stroke-miterlimit="22.9256" stroke-linecap="round" stroke-linejoin="round"/>
    <path d="M7.35889 21.8662L4.13401 18.6413" stroke="black" stroke-width="0.975609" stroke-miterlimit="22.9256" stroke-linecap="round" stroke-linejoin="round"/>
    <path d="M19.1333 15.7383L16.2499 12.8549M13.1455 9.75053L10.2619 6.86692" stroke="black" stroke-width="1.5" stroke-miterlimit="22.9256" stroke-linecap="round" stroke-linejoin="round"/>
    <path d="M23.0005 8.4816L21.7921 9.68994" stroke="black" stroke-width="1.5" stroke-miterlimit="22.9256" stroke-linecap="round" stroke-linejoin="round"/>
    <path d="M21.1729 6.65463L18.5331 9.29443" stroke="black" stroke-width="1.5" stroke-miterlimit="22.9256" stroke-linecap="round" stroke-linejoin="round"/>
    <path d="M19.3457 4.82721L17.5338 6.63916" stroke="black" stroke-width="1.5" stroke-miterlimit="22.9256" stroke-linecap="round" stroke-linejoin="round"/>
    <path d="M17.5181 2.99972L16.3098 4.20801" stroke="black" stroke-width="1.5" stroke-miterlimit="22.9256" stroke-linecap="round" stroke-linejoin="round"/>
    <path d="M14.6978 11.3027H14.6974" stroke="black" stroke-width="0.975609" stroke-miterlimit="2.6131" stroke-linecap="round" stroke-linejoin="round"/>
</svg>
