<svg width="10" height="10" viewBox="0 0 15 16" fill="none" xmlns="http://www.w3.org/2000/svg">
                  <path
                    d="M0.975098 4.6875L1.80538 14.7105C1.86488 15.4333 2.48057 16 3.20613 16H10.8563C11.5818 16 12.1975 15.4333 12.257 14.7105L13.0873 4.6875H0.975098ZM4.687 14.125C4.44163 14.125 4.23519 13.9341 4.21963 13.6855L3.75088 6.12303C3.73485 5.86441 3.93122 5.64194 4.18941 5.62591C4.45719 5.60713 4.67007 5.80581 4.68653 6.06444L5.15528 13.6269C5.17188 13.8948 4.95997 14.125 4.687 14.125ZM7.49994 13.6562C7.49994 13.9153 7.29029 14.125 7.03119 14.125C6.7721 14.125 6.56244 13.9153 6.56244 13.6562V6.09375C6.56244 5.83466 6.7721 5.625 7.03119 5.625C7.29029 5.625 7.49994 5.83466 7.49994 6.09375V13.6562ZM10.3115 6.12306L9.84275 13.6856C9.82735 13.9316 9.62225 14.1367 9.34563 14.1241C9.08744 14.1081 8.89107 13.8856 8.9071 13.627L9.37585 6.06447C9.39188 5.80584 9.61847 5.61769 9.87297 5.62594C10.1312 5.64197 10.3275 5.86444 10.3115 6.12306Z"
                    fill="white" />
                  <path
                    d="M13.125 1.875H10.3125V1.40625C10.3125 0.630813 9.68169 0 8.90625 0H5.15625C4.38081 0 3.75 0.630813 3.75 1.40625V1.875H0.9375C0.419719 1.875 0 2.29472 0 2.8125C0 3.33022 0.419719 3.75 0.9375 3.75C5.24894 3.75 8.81372 3.75 13.125 3.75C13.6428 3.75 14.0625 3.33022 14.0625 2.8125C14.0625 2.29472 13.6428 1.875 13.125 1.875ZM9.375 1.875H4.6875V1.40625C4.6875 1.14762 4.89762 0.9375 5.15625 0.9375H8.90625C9.16488 0.9375 9.375 1.14762 9.375 1.40625V1.875Z"
                    fill="white" />
                </svg>