<svg width="24" height="18" viewBox="0 0 24 18" fill="none" xmlns="http://www.w3.org/2000/svg">
    <path d="M15.3885 9.94946L13.4724 11.872C12.6954 12.6517 11.3283 12.6686 10.5345 11.872L8.61832 9.94946L1.73633 16.8538C1.9925 16.9723 2.27494 17.0429 2.57522 17.0429H21.4317C21.732 17.0429 22.0143 16.9723 22.2704 16.8538L15.3885 9.94946Z" fill="#6D6D6D"/>
    <path d="M21.4316 0.957275H2.57513C2.27486 0.957275 1.99241 1.02796 1.73633 1.14642L9.09022 8.52471C9.09071 8.52521 9.0913 8.52529 9.09179 8.52579C9.09228 8.52628 9.09237 8.52695 9.09237 8.52695L11.4835 10.926C11.7375 11.18 12.2693 11.18 12.5233 10.926L14.914 8.52735C14.914 8.52735 14.9146 8.52628 14.915 8.52579C14.915 8.52579 14.9161 8.52521 14.9166 8.52471L22.2703 1.14638C22.0142 1.02788 21.7319 0.957275 21.4316 0.957275Z" fill="#6D6D6D"/>
    <path d="M0.780262 2.0835C0.64773 2.35151 0.566406 2.64901 0.566406 2.9677V15.0323C0.566406 15.351 0.647641 15.6485 0.780217 15.9165L7.67414 9.00021L0.780262 2.0835Z" fill="#6D6D6D"/>
    <path d="M23.2278 2.08325L16.334 9.00005L23.2278 15.9164C23.3603 15.6484 23.4417 15.3509 23.4417 15.0321V2.96754C23.4417 2.64877 23.3603 2.35126 23.2278 2.08325Z" fill="#6D6D6D"/>
</svg>
