<svg width="24" height="24" viewBox="0 0 24 24" fill="none" xmlns="http://www.w3.org/2000/svg">
    <path d="M12 0C9.62663 0 7.30655 0.703788 5.33316 2.02236C3.35977 3.34094 1.8217 5.21508 0.913451 7.4078C0.0051994 9.60051 -0.232441 12.0133 0.230582 14.3411C0.693605 16.6689 1.83649 18.807 3.51472 20.4853C5.19295 22.1635 7.33115 23.3064 9.65892 23.7694C11.9867 24.2324 14.3995 23.9948 16.5922 23.0865C18.7849 22.1783 20.6591 20.6402 21.9776 18.6668C23.2962 16.6934 24 14.3734 24 12C24 8.8174 22.7357 5.76515 20.4853 3.51472C18.2348 1.26428 15.1826 0 12 0ZM12 22.2857C9.96568 22.2857 7.97704 21.6825 6.28557 20.5523C4.59409 19.422 3.27575 17.8156 2.49724 15.9362C1.71874 14.0567 1.51505 11.9886 1.91193 9.99335C2.3088 7.99812 3.28842 6.16538 4.72691 4.7269C6.16539 3.28842 7.99813 2.3088 9.99336 1.91192C11.9886 1.51505 14.0567 1.71874 15.9362 2.49724C17.8156 3.27574 19.4221 4.59409 20.5523 6.28556C21.6825 7.97704 22.2857 9.96568 22.2857 12C22.2857 14.7279 21.202 17.3441 19.2731 19.2731C17.3442 21.202 14.7279 22.2857 12 22.2857ZM17.0743 5.77714L9.79715 9.42857C9.63275 9.51548 9.49834 9.64989 9.41143 9.81428L5.77715 17.0743C5.71305 17.2051 5.68335 17.3501 5.69085 17.4955C5.69835 17.641 5.7428 17.7822 5.82 17.9057C5.89721 18.0292 6.00462 18.1311 6.13209 18.2015C6.25957 18.272 6.40291 18.3089 6.54858 18.3086C6.67918 18.3091 6.80818 18.2798 6.92572 18.2229L14.2029 14.5714C14.3673 14.4845 14.5017 14.3501 14.5886 14.1857L18.2229 6.90857C18.3022 6.74787 18.3291 6.56634 18.2999 6.38953C18.2707 6.21272 18.1868 6.04951 18.06 5.92286C17.9314 5.79887 17.7672 5.71818 17.5905 5.69205C17.4138 5.66593 17.2333 5.69568 17.0743 5.77714ZM13.1829 13.1829L8.46 15.54L10.8171 10.8171L15.54 8.46L13.1829 13.1829Z" fill="black"/>
</svg>