<svg width="24" height="18" viewBox="0 0 24 18" fill="none" xmlns="http://www.w3.org/2000/svg">
    <path d="M19.2995 15.7133L4.68409 1.09832L4.68097 1.09475C4.60184 1.01627 4.50803 0.954139 4.40489 0.911911C4.30176 0.869684 4.19131 0.848184 4.07986 0.84864C3.96842 0.849096 3.85815 0.871499 3.75536 0.914568C3.65258 0.957638 3.55928 1.02053 3.48079 1.09966C3.40231 1.17879 3.34018 1.2726 3.29796 1.37573C3.25573 1.47887 3.23423 1.58932 3.23468 1.70076C3.23561 1.92584 3.3259 2.14133 3.4857 2.29983L4.76532 3.57945C3.21349 4.64227 1.87775 5.99028 0.829164 7.55177C0.657931 7.80458 0.566406 8.10292 0.566406 8.40827C0.566406 8.71361 0.657931 9.01195 0.829164 9.26477C3.50579 13.2264 7.74902 15.5473 11.9923 15.5183C13.3667 15.5232 14.732 15.2944 16.0297 14.8416L18.1011 16.913C18.2607 17.0675 18.4745 17.1531 18.6966 17.1516C18.9187 17.1501 19.1313 17.0615 19.2888 16.9049C19.4463 16.7483 19.5361 16.5362 19.5388 16.3141C19.5416 16.0921 19.4571 15.8778 19.3035 15.7173L19.2995 15.7133ZM11.9923 13.2148C11.1883 13.2145 10.3973 13.0127 9.69144 12.6279C8.9856 12.2431 8.38744 11.6875 7.95164 11.012C7.51585 10.3364 7.25631 9.5624 7.19674 8.76068C7.13717 7.95896 7.27948 7.1551 7.61066 6.42256L8.94741 7.75931C8.83974 8.26669 8.86054 8.79293 9.00794 9.29023C9.15533 9.78753 9.42465 10.2401 9.79141 10.6069C10.1582 10.9736 10.6108 11.243 11.1081 11.3904C11.6054 11.5377 12.1316 11.5586 12.639 11.4509L13.9757 12.7876C13.3527 13.0701 12.6763 13.2158 11.9923 13.2148Z" fill="#6D6D6D"/>
    <path d="M23.1576 7.54994C20.481 3.5861 16.2377 1.2652 11.9945 1.29421C10.6201 1.28924 9.25477 1.51804 7.95703 1.97085L10.0101 4.02395C10.901 3.62078 11.8937 3.49869 12.8557 3.67397C13.8178 3.84925 14.7036 4.31356 15.395 5.00503C16.0865 5.6965 16.5508 6.58229 16.7261 7.54434C16.9014 8.50639 16.7793 9.49901 16.3761 10.3899L19.221 13.2348C20.7731 12.1722 22.109 10.8241 23.1576 9.26249C23.3287 9.00972 23.4202 8.71147 23.4202 8.40621C23.4202 8.10096 23.3287 7.80271 23.1576 7.54994Z" fill="#6D6D6D"/>
    <path d="M11.9924 5.29346C11.7751 5.29348 11.5583 5.31622 11.3457 5.3613L15.0373 9.05243C15.1335 8.59891 15.1273 8.12963 15.0189 7.67885C14.9106 7.22806 14.703 6.80717 14.4112 6.44692C14.1193 6.08667 13.7507 5.79615 13.3323 5.59658C12.9138 5.39702 12.456 5.29346 11.9924 5.29346Z" fill="#6D6D6D"/>
</svg>
