<svg width="25" height="24" viewBox="0 0 25 24" fill="none" xmlns="http://www.w3.org/2000/svg">
    <path d="M6.82812 15C9.84434 15 13.1562 10.5275 13.1562 6.45431C13.1562 4.4805 12.511 2.82319 11.2903 1.66167C10.1641 0.590156 8.57947 0 6.82812 0C5.07678 0 3.49213 0.590156 2.36595 1.66167C1.14523 2.82323 0.5 4.4805 0.5 6.45431C0.5 10.5275 3.81191 15 6.82812 15ZM8.70312 4.6875H9.64062C10.0289 4.6875 10.3438 5.00231 10.3438 5.39062C10.3438 5.77894 10.0289 6.09375 9.64062 6.09375H8.70312C8.31481 6.09375 8 5.77894 8 5.39062C8 5.00231 8.31481 4.6875 8.70312 4.6875ZM6.15345 9.79866C6.33364 9.97889 6.57327 10.0781 6.82812 10.0781C7.08298 10.0781 7.32261 9.97889 7.5028 9.79866C7.77739 9.52411 8.22256 9.52402 8.49716 9.79866C8.77175 10.0732 8.77175 10.5184 8.49716 10.793C8.05137 11.2388 7.45864 11.4844 6.82812 11.4844C6.19761 11.4844 5.60488 11.2388 5.15905 10.793C4.8845 10.5184 4.8845 10.0732 5.15905 9.79866C5.43369 9.52406 5.87891 9.52406 6.15345 9.79866ZM4.01562 4.6875H4.95312C5.34144 4.6875 5.65625 5.00231 5.65625 5.39062C5.65625 5.77894 5.34144 6.09375 4.95312 6.09375H4.01562C3.62731 6.09375 3.3125 5.77894 3.3125 5.39062C3.3125 5.00231 3.62731 4.6875 4.01562 4.6875Z" fill="black"/>
    <path d="M22.634 10.6617C21.5079 9.59016 19.9232 9 18.1719 9C16.4205 9 14.8359 9.59016 13.7097 10.6617C12.489 11.8232 11.8438 13.4805 11.8438 15.4543C11.8438 19.5275 15.1557 24 18.1719 24C21.1881 24 24.5 19.5275 24.5 15.4543C24.5 13.4805 23.8548 11.8232 22.634 10.6617ZM15.3594 15.0938C14.9711 15.0938 14.6562 14.7789 14.6562 14.3906C14.6562 14.0023 14.9711 13.6875 15.3594 13.6875H16.2969C16.6852 13.6875 17 14.0023 17 14.3906C17 14.7789 16.6852 15.0938 16.2969 15.0938H15.3594ZM19.841 19.793C19.3951 20.2388 18.8024 20.4844 18.1719 20.4844C17.5414 20.4844 16.9486 20.2388 16.5028 19.793C16.2283 19.5184 16.2283 19.0732 16.5028 18.7987C16.7774 18.5241 17.2226 18.5241 17.4972 18.7987C17.6774 18.9789 17.917 19.0781 18.1719 19.0781C18.4267 19.0781 18.6664 18.9789 18.8465 18.7987C19.1211 18.5241 19.5663 18.524 19.8409 18.7987C20.1155 19.0732 20.1155 19.5184 19.841 19.793ZM20.9844 15.0938H20.0469C19.6586 15.0938 19.3438 14.7789 19.3438 14.3906C19.3438 14.0023 19.6586 13.6875 20.0469 13.6875H20.9844C21.3727 13.6875 21.6875 14.0023 21.6875 14.3906C21.6875 14.7789 21.3727 15.0938 20.9844 15.0938Z" fill="black"/>
    <path d="M14.375 1.40625H17.6562C18.044 1.40625 18.3594 1.72167 18.3594 2.10938V4.63064L17.6847 3.95592C17.4101 3.68133 16.9649 3.68133 16.6903 3.95592C16.4157 4.23052 16.4157 4.67569 16.6903 4.95028L18.5653 6.82528C18.8399 7.09987 19.2851 7.09987 19.5597 6.82528L21.4347 4.95028C21.7092 4.67569 21.7092 4.23052 21.4347 3.95592C21.1601 3.68133 20.7149 3.68133 20.4403 3.95592L19.7656 4.63064V2.10938C19.7656 0.946266 18.8194 0 17.6562 0H14.375C13.9867 0 13.6719 0.314812 13.6719 0.703125C13.6719 1.09144 13.9867 1.40625 14.375 1.40625Z" fill="black"/>
    <path d="M10.625 22.5937H7.34373C6.95602 22.5937 6.6406 22.2783 6.6406 21.8906V19.3693L7.31532 20.0441C7.58991 20.3186 8.03509 20.3186 8.30968 20.0441C8.58427 19.7695 8.58427 19.3243 8.30968 19.0497L6.43468 17.1747C6.16009 16.9001 5.71491 16.9001 5.44032 17.1747L3.56532 19.0497C3.29073 19.3243 3.29073 19.7695 3.56532 20.0441C3.83991 20.3186 4.28509 20.3186 4.55968 20.0441L5.23435 19.3693V21.8906C5.23435 23.0537 6.18062 24 7.34373 24H10.625C11.0133 24 11.3281 23.6852 11.3281 23.2969C11.3281 22.9085 11.0133 22.5937 10.625 22.5937Z" fill="black"/>
</svg>
