<svg width="25" height="24" viewBox="0 0 25 24" fill="none" xmlns="http://www.w3.org/2000/svg">
    <path d="M12.5 0C5.86761 0 0.5 5.367 0.5 12C0.5 18.6323 5.867 24 12.5 24C19.1324 24 24.5 18.633 24.5 12C24.5 5.36761 19.133 0 12.5 0ZM12.1449 17.6165C11.4657 17.6165 10.9445 17.0479 10.9445 16.4002C10.9445 15.7368 11.4815 15.184 12.1449 15.184C12.8084 15.184 13.3611 15.7368 13.3611 16.4002C13.3611 17.0478 12.8241 17.6165 12.1449 17.6165ZM13.9456 11.472C13.0768 12.1512 13.061 12.6251 13.061 13.4464C13.061 13.7466 12.903 14.0941 12.1291 14.0941C11.4814 14.0941 11.2603 13.8571 11.2603 13.0358C11.2603 11.6774 11.8606 11.0297 12.3186 10.6349C12.8399 10.1925 13.7245 9.70294 13.7245 8.85C13.7245 8.12334 13.0926 7.77586 12.3028 7.77586C10.6917 7.77586 11.0392 8.99217 10.1862 8.99217C9.75974 8.99217 9.23848 8.70778 9.23848 8.0918C9.23848 7.23886 10.2178 5.97516 12.3502 5.97516C14.372 5.97516 15.7147 7.09669 15.7147 8.58145C15.7147 10.0662 14.372 11.1403 13.9456 11.472Z" fill="black"/>
</svg>
