<svg width="25" height="24" viewBox="0 0 25 24" fill="none" xmlns="http://www.w3.org/2000/svg">
    <path fill-rule="evenodd" clip-rule="evenodd" d="M14.1 0V2.4C14.1 2.62091 14.0219 2.80947 13.8657 2.96569C13.7094 3.1219 13.5209 3.2 13.3 3.2C13.0791 3.2 12.8906 3.1219 12.7343 2.96569C12.5781 2.80947 12.5 2.62091 12.5 2.4V0H4.5V2.4C4.5 2.62091 4.4219 2.80947 4.26569 2.96569C4.10947 3.1219 3.92091 3.2 3.7 3.2C3.47909 3.2 3.29053 3.1219 3.13431 2.96569C2.9781 2.80947 2.9 2.62091 2.9 2.4V0C2.23748 0 1.67118 0.23424 1.20271 0.702712C0.73424 1.17118 0.5 1.73668 0.5 2.3992V13.6008C0.5 14.2633 0.73424 14.8288 1.20271 15.2973C1.67118 15.7658 2.23668 16 2.8992 16L2.9 13.6C2.9 13.3791 2.9781 13.1906 3.13431 13.0343C3.29053 12.8781 3.47909 12.8 3.7 12.8C3.92091 12.8 4.10947 12.8781 4.26569 13.0343C4.4219 13.1906 4.5 13.3791 4.5 13.6V16H7.7V12.7992C7.7 11.1998 8.49976 10.4 10.0992 10.4H16.5V2.3992C16.5 0.799736 15.6994 0 14.1 0ZM4.5 6.4V4.8C4.5 4.57909 4.4219 4.39052 4.26569 4.23431C4.10947 4.0781 3.92091 4 3.7 4C3.47909 4 3.29053 4.0781 3.13431 4.23431C2.9781 4.39052 2.9 4.57909 2.9 4.8V6.4C2.9 6.62091 2.9781 6.80947 3.13431 6.96569C3.29053 7.1219 3.47909 7.2 3.7 7.2C3.92091 7.2 4.10947 7.1219 4.26569 6.96569C4.4219 6.80947 4.5 6.62091 4.5 6.4ZM10.58 6.56L7.38 4.16C7.31076 4.10807 7.23509 4.06842 7.15298 4.04106C7.07087 4.01369 6.98655 4 6.9 4C6.67909 4 6.49053 4.0781 6.33431 4.23431C6.1781 4.39052 6.1 4.57909 6.1 4.8V9.6C6.1 9.68656 6.11369 9.77088 6.14106 9.85296C6.16842 9.93512 6.20807 10.0108 6.26 10.08C6.39254 10.2567 6.56817 10.3607 6.78686 10.3919C7.00556 10.4232 7.20327 10.3726 7.38 10.24L10.58 7.84C10.6103 7.81728 10.6389 7.79248 10.6657 7.76568C10.6925 7.73888 10.7173 7.71032 10.74 7.68C10.8726 7.50328 10.9232 7.30552 10.8919 7.08686C10.8607 6.86817 10.7567 6.69254 10.58 6.56ZM14.1 6.4V4.8C14.1 4.57909 14.0219 4.39052 13.8657 4.23431C13.7094 4.0781 13.5209 4 13.3 4C13.0791 4 12.8906 4.0781 12.7343 4.23431C12.5781 4.39052 12.5 4.57909 12.5 4.8V6.4C12.5 6.62091 12.5781 6.80947 12.7343 6.96569C12.8906 7.1219 13.0791 7.2 13.3 7.2C13.5209 7.2 13.7094 7.1219 13.8657 6.96569C14.0219 6.80947 14.1 6.62091 14.1 6.4ZM4.5 9.6V11.2C4.5 11.4209 4.4219 11.6094 4.26569 11.7657C4.10947 11.9219 3.92091 12 3.7 12C3.47909 12 3.29053 11.9219 3.13431 11.7657C2.9781 11.6094 2.9 11.4209 2.9 11.2V9.6C2.9 9.37912 2.9781 9.19056 3.13431 9.03432C3.29053 8.87808 3.47909 8.8 3.7 8.8C3.92091 8.8 4.10947 8.87808 4.26569 9.03432C4.4219 9.19056 4.5 9.37912 4.5 9.6ZM22.1008 11.2C23.7002 11.2 24.5 11.9998 24.5 13.5992V21.6008C24.5 22.4579 24.2703 23.0854 23.811 23.4833L22.5706 22.553L13.7706 16.153C13.6031 16.0313 13.4166 15.9819 13.211 16.005C13.0052 16.028 12.8342 16.1174 12.6979 16.2732L8.5 21.0709V13.5992C8.5 11.9998 9.29976 11.2 10.8992 11.2H22.1008ZM17.3 16C17.3 14.4 18.1 13.6 19.7 13.6C21.3 13.6 22.1 14.4 22.1 16C22.1 17.6 21.3 18.4 19.7 18.4C18.1 18.4 17.3 17.6 17.3 16ZM8.94256 22.9948C9.01928 23.0998 9.106 23.2006 9.20272 23.2973C9.6712 23.7658 10.2366 24 10.8992 24H21.8334L21.6294 23.847L13.4207 17.877L8.94256 22.9948Z" fill="black"/>
</svg>
