<svg width="23" height="20" viewBox="0 0 23 20" fill="none" xmlns="http://www.w3.org/2000/svg">
    <path fill-rule="evenodd" clip-rule="evenodd" d="M6.45781 0H20.2081C21.4714 0 22.5 1.02006 22.5 2.27283V12.2727C22.5 13.5254 21.4714 14.5455 20.2081 14.5455H6.45781C5.19474 14.5455 4.16615 13.5254 4.16615 12.2727V2.27283C4.16615 1.02006 5.19474 0 6.45781 0ZM20.2081 1.81823H6.45781C6.20486 1.81823 5.99958 2.02181 5.99958 2.27283V10.8536L8.52959 8.3454C9.15568 7.72368 10.176 7.72368 10.803 8.3454L11.9121 9.4427L15.3168 5.3901C15.6211 5.02822 16.0666 4.81914 16.5414 4.81648C17.019 4.8273 17.4636 5.01823 17.7708 5.37545L20.6665 8.72643V2.27283C20.6665 2.02181 20.4613 1.81823 20.2081 1.81823ZM8.74993 6.36351C9.76106 6.36351 10.5832 5.54803 10.5832 4.54528C10.5832 3.54253 9.76106 2.72705 8.74993 2.72705C7.7388 2.72705 6.9165 3.54253 6.9165 4.54528C6.9165 5.54803 7.7388 6.36351 8.74993 6.36351ZM6.22874 15.9091C4.76122 15.9091 3.45584 14.9773 2.98183 13.59L2.94977 13.4855C2.83798 13.1181 2.79115 12.8092 2.79115 12.5V6.30179L0.5673 13.6636C0.281282 14.7464 0.933047 15.869 2.02659 16.1681L16.2014 19.9328C16.3783 19.9782 16.5552 20 16.7295 20C17.6424 20 18.4766 19.3991 18.7104 18.5135L19.5363 15.9091H6.22874Z" fill="black"/>
</svg>
