<svg width="25" height="23" viewBox="0 0 25 23" fill="none" xmlns="http://www.w3.org/2000/svg">
<path fill-rule="evenodd" clip-rule="evenodd" d="M6.03035 0.0606607L14.5411 0.0557778C22.4268 0.050895 23.0714 0.0557779 23.3741 0.133903C23.5596 0.182731 23.838 0.299918 23.9991 0.397575C24.17 0.500114 24.3897 0.695426 24.5264 0.861442C24.6534 1.01769 24.8096 1.2716 24.9757 1.68664L24.9903 8.22961C25.0001 12.9708 24.9903 14.8556 24.9513 15.0655C24.9171 15.2267 24.8243 15.4855 24.7413 15.6466C24.6534 15.8028 24.4727 16.0372 24.3409 16.1642C24.2042 16.2911 23.9845 16.4474 23.8526 16.5157C23.7159 16.5841 23.4766 16.6671 23.3155 16.6964C23.1007 16.7403 20.752 16.7501 5.78621 16.7257L5.49324 16.6085C5.33211 16.5402 5.09285 16.3986 4.96102 16.2911C4.82918 16.1788 4.64852 15.9933 4.56063 15.8712C4.47273 15.7491 4.35066 15.5196 4.17488 15.0655L4.16023 8.62023C4.15047 4.10363 4.16023 2.08214 4.1993 1.85754C4.22859 1.68175 4.30672 1.42297 4.37508 1.28136C4.43855 1.14464 4.5948 0.915153 4.72176 0.778434C4.85359 0.636833 5.04402 0.470817 5.15145 0.402458C5.25887 0.334098 5.49813 0.226676 5.68855 0.168083L6.03035 0.0606607ZM5.55184 1.40832C5.47371 1.48156 5.37117 1.62316 5.31746 1.7257C5.22957 1.90148 5.22469 2.10168 5.22469 7.90246V13.8937C9.18465 9.93859 9.4825 9.66027 9.74129 9.54308C9.98543 9.43078 10.0977 9.40636 10.4249 9.40636C10.7276 9.40636 10.8741 9.43078 11.0596 9.51867C11.2403 9.60168 11.5235 9.84582 12.1436 10.4659C12.6075 10.9298 12.9932 11.296 13.003 11.2814C13.0128 11.2716 13.9552 10.1388 15.0929 8.76672C16.2354 7.39953 17.2315 6.23254 17.3096 6.17394C17.3927 6.11535 17.544 6.03234 17.6514 5.9884C17.7589 5.94445 17.9688 5.89562 18.1153 5.88097C18.2911 5.86144 18.4766 5.87609 18.6524 5.9298C18.7989 5.96886 19.0138 6.0714 19.1261 6.15441C19.2432 6.23742 20.3614 7.50207 21.6163 8.96203C22.8761 10.4269 23.9161 11.6085 23.9356 11.589C23.96 11.5694 23.9698 9.37707 23.96 6.71593L23.9503 1.87707C23.6964 1.46203 23.5889 1.36437 23.3888 1.26183L23.1202 1.12511C7.05086 1.13 6.01082 1.13976 5.85945 1.20324C5.76668 1.24718 5.62508 1.33996 5.55184 1.40832ZM15.6153 9.74816C13.7794 11.9601 13.3009 12.5118 13.169 12.5558C13.0616 12.59 12.9688 12.59 12.8663 12.5509C12.7833 12.5216 12.2852 12.0675 11.7188 11.5011C11.1573 10.9445 10.6544 10.4806 10.5714 10.4513C10.4884 10.422 10.3712 10.4122 10.3028 10.4269C10.2247 10.4464 9.2823 11.3546 7.78816 12.8487C5.72762 14.9044 5.40535 15.2511 5.4493 15.3243C5.47859 15.3683 5.57625 15.4611 5.66902 15.5196C5.7618 15.5831 5.91316 15.6515 6.00594 15.6808C6.11336 15.7101 9.40437 15.7247 14.5655 15.7247C20.879 15.7247 23.0079 15.7101 23.1788 15.6661C23.3448 15.6271 23.4766 15.5489 23.6378 15.3878C23.794 15.2267 23.877 15.0997 23.9161 14.9337C23.9503 14.8068 23.9747 14.3868 23.9747 14.006L23.9698 13.3077C19.8536 8.50304 18.6085 7.07238 18.545 7.02355C18.4815 6.97961 18.379 6.93078 18.3106 6.91613C18.2423 6.90636 18.1251 6.91613 18.047 6.94543C17.9395 6.97961 17.2755 7.75109 15.6153 9.74816ZM2.62215 8.11242C2.74422 8.10754 2.82723 8.15148 2.95418 8.27843C3.05672 8.38586 3.12508 8.49816 3.12508 8.5714C3.12508 8.63976 2.65145 10.4562 2.07527 12.6144C1.23055 15.7638 1.03035 16.5695 1.04988 16.7257C1.06941 16.8331 1.12801 17.0089 1.1866 17.1163C1.2452 17.2237 1.38191 17.3702 1.48934 17.4435C1.65047 17.5558 2.9493 17.9171 8.81355 19.4894C12.7345 20.5343 16.3819 21.5109 16.919 21.6573C17.4561 21.7989 17.9639 21.9357 18.0421 21.9503C18.1251 21.9698 18.3009 21.9552 18.4571 21.9112C18.6622 21.8527 18.7745 21.7843 18.9307 21.6134C19.0479 21.4913 19.1407 21.379 19.1407 21.3644C19.1407 21.3546 19.336 20.6222 19.5753 19.7433C19.8096 18.8644 20.0294 18.0929 20.0636 18.0343C20.0929 17.9708 20.2003 17.8878 20.2979 17.8487C20.4005 17.8048 20.5421 17.7853 20.6153 17.7999C20.6934 17.8146 20.8057 17.8927 20.8741 17.9708C20.9571 18.0734 20.9962 18.1759 20.9962 18.3028C20.9962 18.4005 20.8057 19.1866 20.5763 20.046C20.3419 20.9054 20.0929 21.7306 20.0196 21.8771C19.9464 22.0284 19.7657 22.2579 19.6241 22.3946C19.4776 22.5314 19.2677 22.6925 19.1505 22.7511C19.0382 22.8097 18.8429 22.8927 18.711 22.9318C18.5499 22.9903 18.3692 23.005 18.0909 22.9903C17.7784 22.9708 17.0264 22.7853 14.4288 22.0821C12.627 21.5939 8.9698 20.6075 6.29891 19.8946C3.62801 19.1769 1.3282 18.5421 1.19637 18.4835C1.05965 18.42 0.839922 18.2736 0.708086 18.1515C0.571367 18.0343 0.395586 17.8146 0.307695 17.673C0.219805 17.5265 0.112383 17.2677 0.0684375 17.0919C0.0147266 16.882 -0.00480467 16.672 0.0147266 16.4571C0.029375 16.2765 0.459063 14.5821 1.045 12.4044C1.59676 10.3536 2.08504 8.57629 2.1241 8.46398C2.16805 8.33215 2.24617 8.22961 2.32918 8.18566C2.4073 8.1466 2.53914 8.11242 2.62215 8.11242ZM9.44832 3.24425C9.76082 3.25402 9.97078 3.29308 10.1807 3.37609C10.3809 3.45422 10.5714 3.58117 10.7813 3.78625C10.9864 3.97668 11.1427 4.18175 11.2305 4.37218C11.3087 4.53332 11.3966 4.81164 11.4259 4.98254C11.4698 5.22179 11.4698 5.38293 11.4259 5.6173C11.3966 5.79308 11.3184 6.04699 11.255 6.17882C11.1915 6.31554 11.0255 6.5548 10.879 6.71105C10.713 6.89172 10.5177 7.04797 10.3272 7.14074C10.1661 7.21886 9.87801 7.30676 9.69246 7.34093C9.44344 7.38 9.26766 7.38488 9.0577 7.34582C8.89656 7.31652 8.63289 7.23351 8.47176 7.16027C8.29109 7.07726 8.07625 6.92101 7.90535 6.75011C7.75887 6.59875 7.5782 6.35461 7.50984 6.20324C7.4366 6.05675 7.35359 5.79308 7.3243 5.6173C7.28035 5.37804 7.28035 5.22179 7.3243 4.98254C7.35359 4.81164 7.43172 4.55285 7.50008 4.41125C7.56355 4.26965 7.7198 4.04015 7.84676 3.90343C7.97859 3.76672 8.16902 3.59582 8.27645 3.52746C8.38387 3.4591 8.59383 3.36632 8.74031 3.3175C8.94051 3.24914 9.11629 3.22961 9.44832 3.24425ZM8.67684 4.53332C8.59871 4.60656 8.49129 4.75304 8.43758 4.86047C8.35945 5.01183 8.33992 5.12902 8.35457 5.35851C8.36922 5.59777 8.4034 5.70519 8.52059 5.87121C8.60359 5.98839 8.76961 6.13976 8.8868 6.20324C9.04793 6.29113 9.17977 6.32531 9.37508 6.32043C9.56551 6.32043 9.70711 6.28625 9.86336 6.20324C9.98055 6.13488 10.1466 5.98839 10.2296 5.87121C10.3321 5.71984 10.3809 5.588 10.3956 5.40734C10.4054 5.27062 10.3858 5.06554 10.3468 4.95812C10.3126 4.8507 10.2149 4.68957 10.1368 4.59679C10.0538 4.50402 9.89754 4.39172 9.79012 4.34289C9.6827 4.29406 9.49715 4.255 9.37508 4.255C9.25301 4.255 9.07723 4.28918 8.98445 4.32824C8.89168 4.37218 8.75008 4.46496 8.67684 4.53332Z" fill="black"/>
</svg>
