<svg width="18" height="18" viewBox="0 0 18 18" fill="none" xmlns="http://www.w3.org/2000/svg">
    <g clip-path="url(#clip0_2242_867)">
        <path d="M10.1832 0.0634758C10.158 0.0888279 7.95524 0.494462 5.28671 0.9508C2.61818 1.41981 0.365029 1.86348 0.276918 1.93953C0.151043 2.06629 0.113281 3.51136 0.113281 9.0001C0.113281 14.4888 0.151043 15.9466 0.276918 16.0607C0.365029 16.1494 2.593 16.5931 5.22377 17.0494C7.85454 17.5057 10.1832 17.924 10.4098 17.9747C10.7245 18.0381 10.8755 18.0128 11.0769 17.81C11.3287 17.5691 11.3413 17.455 11.3287 13.5888V9.6339C14.8406 9.6339 15.8601 9.67193 15.8601 9.72263C15.8601 9.78601 15.1804 10.4832 14.3496 11.2818C13.5189 12.0804 12.8392 12.7902 12.8392 12.8663C12.8266 12.9297 12.9399 13.1325 13.0657 13.31C13.2923 13.6015 13.3427 13.6142 13.6699 13.4747C13.8713 13.386 14.9035 12.3973 15.9482 11.2818C17.0056 10.1663 17.8741 9.16489 17.8741 9.06348C17.8741 8.96207 16.9552 7.89728 15.8224 6.71841C14.7021 5.52686 13.7077 4.53812 13.6196 4.5001C13.544 4.46207 13.3804 4.47474 13.2671 4.52545C13.1538 4.58883 13.0028 4.72826 12.9524 4.84235C12.8769 4.99446 12.9021 5.19728 13.0154 5.41277C13.1161 5.61559 13.7958 6.32545 14.5259 6.99728C15.2559 7.68179 15.8601 8.29024 15.8601 8.36629C15.8601 8.44235 15.0042 8.49305 13.5315 8.49305H11.2028V9.50714C5.67692 9.44376 5.36223 9.41841 5.23636 9.22827C5.13566 9.06348 5.13566 8.93672 5.23636 8.7846C5.36223 8.58179 5.6895 8.54376 8.32027 8.49305L11.2657 8.42967C11.3161 0.798687 11.3035 0.418405 11.1021 0.215588C10.9888 0.0888279 10.7371 -0.0125806 10.5608 9.55057e-05C10.3846 9.55057e-05 10.2084 0.0254476 10.1832 0.0634758Z" fill="#474747"/>
    </g>
    <defs>
        <clipPath id="clip0_2242_867">
            <rect width="18" height="18" fill="white"/>
        </clipPath>
    </defs>
</svg>
