<svg width="60" height="60" viewBox="0 0 60 60" fill="none" xmlns="http://www.w3.org/2000/svg">
<rect width="60" height="60" rx="5" fill="#E8E8E8"/>
<path d="M20.6747 27.5231C22.476 28.5942 26.9034 31.2225 29.114 32.4898C29.3847 32.6452 29.6919 32.7273 30 32.7273C30.308 32.7273 30.6152 32.6452 30.8869 32.4894C33.0966 31.2225 37.524 28.5942 39.3253 27.5227C39.7479 27.2705 40 26.8373 40 26.3637C40 25.89 39.7478 25.4568 39.3253 25.2042C37.9332 24.3764 33.2129 21.5714 30.886 20.2375C30.6123 20.0804 30.3087 19.9987 29.9998 20C29.7005 20.0013 29.3962 20.0805 29.1095 20.2401C29.1095 20.2401 22.7814 23.9569 20.6756 25.2037C20.2521 25.455 20 25.8882 20 26.3637C20 26.8373 20.2521 27.2705 20.6747 27.5231Z" fill="black"/>
<path d="M39.3412 28.8525C39.1983 28.7641 39.0172 28.7624 38.8725 28.8494C36.4248 30.3022 33.1321 32.25 31.3387 33.2776C30.5202 33.7464 29.4788 33.746 28.6621 33.2781C26.8519 32.2403 23.5653 30.2969 21.1275 28.8494C20.9837 28.7628 20.8017 28.7641 20.6579 28.8525C20.2459 29.1051 20 29.5339 20 29.9995C20 30.4732 20.2521 30.9064 20.6747 31.1589C22.476 32.2301 26.9034 34.8583 29.114 36.1256C29.3847 36.281 29.6919 36.3631 30 36.3631C30.308 36.3631 30.6152 36.281 30.8869 36.1252C33.0966 34.8583 37.524 32.2301 39.3253 31.1585C39.7479 30.9064 40 30.4732 40 29.9995C40 29.5339 39.7541 29.1051 39.3412 28.8525Z" fill="black"/>
<path d="M39.3412 32.4889C39.1983 32.4014 39.0172 32.3987 38.8725 32.4858C36.4248 33.9386 33.1321 35.8864 31.3387 36.914C30.5202 37.3828 29.4788 37.3824 28.6621 36.9145C26.8519 35.8766 23.5653 33.9333 21.1275 32.4858C20.9837 32.3992 20.8017 32.4014 20.6579 32.4889C20.2459 32.7414 20 33.1702 20 33.6359C20 34.1095 20.2521 34.5427 20.6747 34.7953C22.476 35.8664 26.9034 38.4947 29.114 39.762C29.3847 39.9174 29.6919 39.9995 30 39.9995C30.308 39.9995 30.6152 39.9174 30.8869 39.7616C33.0966 38.4947 37.524 35.8665 39.3253 34.7949C39.7479 34.5428 40 34.1095 40 33.6359C40 33.1702 39.7541 32.7414 39.3412 32.4889Z" fill="black"/>
</svg>
