<svg width="24" height="26" viewBox="0 0 24 26" fill="none" xmlns="http://www.w3.org/2000/svg">
    <path d="M11.9922 0C8.21208 0 5.13672 3.07536 5.13672 6.85547C5.13672 10.6356 8.21208 13.7109 11.9922 13.7109C15.7723 13.7109 18.8477 10.6356 18.8477 6.85547C18.8477 3.07536 15.7723 0 11.9922 0Z" fill="#6D6D6D"/>
    <path d="M20.5217 18.1896C18.6448 16.2839 16.1567 15.2344 13.5156 15.2344H10.4688C7.82772 15.2344 5.33954 16.2839 3.46266 18.1896C1.59498 20.086 0.566406 22.5892 0.566406 25.2383C0.566406 25.659 0.907453 26 1.32812 26H22.6562C23.0769 26 23.418 25.659 23.418 25.2383C23.418 22.5892 22.3894 20.086 20.5217 18.1896Z" fill="#6D6D6D"/>
</svg>