<?xml version="1.0" ?><!DOCTYPE svg  PUBLIC '-//W3C//DTD SVG 1.1//EN'  'http://www.w3.org/Graphics/SVG/1.1/DTD/svg11.dtd'><svg height="32px" style="fill-rule:evenodd;clip-rule:evenodd;stroke-linejoin:round;stroke-miterlimit:2;" version="1.1" width="32px" xml:space="preserve" xmlns="http://www.w3.org/2000/svg" xmlns:serif="http://www.serif.com/" xmlns:xlink="http://www.w3.org/1999/xlink"><path d="M24,19.586l-3.293,-3.293c-0.39,-0.391 -1.024,-0.391 -1.414,-0l-3,3c-0.391,0.39 -0.391,1.024 -0,1.414l3.293,3.293c-0,-0 -0.586,0.586 -0.586,0.586c-0.572,0.572 -0.743,1.432 -0.434,2.179c0.31,0.748 1.039,1.235 1.848,1.235c1.829,-0 4.247,-0 5.586,-0c0.53,0 1.039,-0.211 1.414,-0.586c0.375,-0.375 0.586,-0.884 0.586,-1.414c0,-1.339 0,-3.757 0,-5.586c0,-0.809 -0.487,-1.538 -1.235,-1.848c-0.747,-0.309 -1.607,-0.138 -2.179,0.434l-0.586,0.586Zm-12,-3.586c-0.256,-0 -0.512,0.098 -0.707,0.293l-3.293,3.293c0,-0 -0.586,-0.586 -0.586,-0.586c-0.572,-0.572 -1.432,-0.743 -2.179,-0.434c-0.748,0.31 -1.235,1.039 -1.235,1.848c0,1.829 0,4.247 0,5.586c-0,0.53 0.211,1.039 0.586,1.414c0.375,0.375 0.884,0.586 1.414,0.586c1.339,-0 3.757,-0 5.586,-0c0.809,0 1.538,-0.487 1.848,-1.235c0.309,-0.747 0.138,-1.607 -0.434,-2.179l-0.586,-0.586l3.293,-3.293c0.391,-0.39 0.391,-1.024 0,-1.414l-3,-3c-0.195,-0.195 -0.451,-0.293 -0.707,-0.293c0.256,0 0.512,-0.098 0.707,-0.293l3,-3c0.391,-0.39 0.391,-1.024 0,-1.414l-3.293,-3.293l0.586,-0.586c0.572,-0.572 0.743,-1.432 0.434,-2.179c-0.31,-0.748 -1.039,-1.235 -1.848,-1.235c-1.829,0 -4.247,0 -5.586,0c-0.53,-0 -1.039,0.211 -1.414,0.586c-0.375,0.375 -0.586,0.884 -0.586,1.414c-0,1.339 -0,3.757 -0,5.586c-0,0.809 0.487,1.538 1.235,1.848c0.747,0.309 1.607,0.138 2.179,-0.434l0.586,-0.586l3.293,3.293c0.195,0.195 0.451,0.293 0.707,0.293Zm14,4.414c0,0 0,5.586 0,5.586c-0,-0 -5.586,0 -5.586,0c0,-0 1.293,-1.293 1.293,-1.293c0.391,-0.39 0.391,-1.024 0,-1.414l-3.293,-3.293c0,0 1.586,-1.586 1.586,-1.586c0,0 3.293,3.293 3.293,3.293c0.39,0.391 1.024,0.391 1.414,0l1.293,-1.293Zm-14.414,5.586c-0,0 -5.586,-0 -5.586,-0c-0,-0 -0,-5.586 -0,-5.586c0,0 1.293,1.293 1.293,1.293c0.39,0.391 1.024,0.391 1.414,0l3.293,-3.293c-0,0 1.586,1.586 1.586,1.586c-0,0 -3.293,3.293 -3.293,3.293c-0.391,0.39 -0.391,1.024 -0,1.414l1.293,1.293Zm8,-18l-3.293,3.293c-0.391,0.39 -0.391,1.024 -0,1.414l3,3c0.39,0.391 1.024,0.391 1.414,0l3.293,-3.293l0.586,0.586c0.572,0.572 1.432,0.743 2.179,0.434c0.748,-0.31 1.235,-1.039 1.235,-1.848c0,-1.829 -0,-4.247 -0,-5.586c0,-0.53 -0.211,-1.039 -0.586,-1.414c-0.375,-0.375 -0.884,-0.586 -1.414,-0.586c-1.339,-0 -3.757,-0 -5.586,-0c-0.809,-0 -1.538,0.487 -1.848,1.235c-0.309,0.747 -0.138,1.607 0.434,2.179l0.586,0.586Zm-9.293,0.707c-0.39,-0.39 -0.39,-1.024 -0,-1.414c-0,-0 1.293,-1.293 1.293,-1.293c-0,-0 -5.586,-0 -5.586,-0c-0,-0 -0,5.586 0,5.586l1.293,-1.293c0.389,-0.389 1.019,-0.39 1.409,-0.005l3.298,3.298c-0,-0 1.586,-1.586 1.586,-1.586l-3.293,-3.293Zm13,1.586c0.39,-0.39 1.024,-0.39 1.414,-0c0,-0 1.293,1.293 1.293,1.293c0,-0 0,-5.586 -0,-5.586c-0,-0 -5.586,-0 -5.586,-0l1.293,1.293c0.39,0.39 0.39,1.024 0,1.414c0,0 -3.293,3.293 -3.293,3.293c0,-0 1.586,1.586 1.586,1.586l3.293,-3.293Z" id="_26-Maximize"/></svg>