<svg width="24" height="24" viewBox="0 0 24 24" fill="none" xmlns="http://www.w3.org/2000/svg">
    <path fill-rule="evenodd" clip-rule="evenodd" d="M4.48077 1.71429H18.1923V1.28571C18.1923 0.575683 17.5982 0 16.8654 0H1.82692C1.09413 0 0.5 0.575683 0.5 1.28571V17.5714C0.5 18.2815 1.09413 18.8571 1.82692 18.8571H2.26923V3.85714C2.27074 2.67418 3.25989 1.71575 4.48077 1.71429ZM20.8456 4.28557H7.13409C5.91321 4.28704 4.92406 5.24547 4.92255 6.42843V21.4284H4.48024C3.74746 21.4284 3.15332 20.8527 3.15332 20.1427V3.857C3.15332 3.14697 3.74746 2.57129 4.48024 2.57129H19.5187C20.2515 2.57129 20.8456 3.14697 20.8456 3.857V4.28557ZM5.8074 8.57129H23.4997V22.7141C23.4997 23.4242 22.9056 23.9999 22.1728 23.9999H7.13433C6.40154 23.9999 5.8074 23.4242 5.8074 22.7141V8.57129ZM22.173 5.14258C22.9058 5.14258 23.4999 5.71826 23.4999 6.42829V7.71401H5.80762V6.42829C5.80762 5.71826 6.40175 5.14258 7.13454 5.14258H22.173ZM7.44856 6.73256C7.48744 6.69092 7.51897 6.643 7.54143 6.5911C7.58873 6.4873 7.58873 6.36928 7.54143 6.26549C7.52005 6.21296 7.48852 6.16504 7.44856 6.12402C7.27125 5.9654 6.99783 5.9654 6.82052 6.12402C6.78056 6.16504 6.74903 6.21296 6.72765 6.26549C6.68057 6.36928 6.68057 6.4873 6.72765 6.5911C6.75011 6.643 6.78164 6.69092 6.82052 6.73256C6.86285 6.77127 6.91231 6.80183 6.96651 6.82254C7.13108 6.89097 7.322 6.85519 7.44856 6.73256ZM8.77548 6.73256C8.81436 6.69092 8.84589 6.643 8.86835 6.5911C8.91565 6.4873 8.91565 6.36928 8.86835 6.26549C8.84697 6.21296 8.81544 6.16504 8.77548 6.12402C8.59817 5.9654 8.32475 5.9654 8.14744 6.12402C8.10749 6.16504 8.07595 6.21296 8.05457 6.26549C8.0319 6.31696 8.0198 6.37221 8.01915 6.42829C8.01764 6.48458 8.02974 6.54025 8.05457 6.5911C8.07703 6.643 8.10857 6.69092 8.14744 6.73256C8.19042 6.77044 8.23988 6.80078 8.29344 6.82254C8.45801 6.89097 8.64892 6.85519 8.77548 6.73256ZM9.61885 6.82652C9.78471 6.89328 9.97585 6.85624 10.1024 6.73256C10.229 6.60993 10.2659 6.42494 10.1953 6.26549C10.1739 6.21296 10.1424 6.16504 10.1024 6.12402C9.92509 5.9654 9.65168 5.9654 9.47436 6.12402C9.43441 6.16504 9.40288 6.21296 9.3815 6.26549C9.35666 6.31634 9.34457 6.372 9.34608 6.42829C9.345 6.6024 9.45277 6.75977 9.61885 6.82652Z" fill="black"/>
</svg>
