<svg width="19" height="23" viewBox="0 0 19 23" fill="none" xmlns="http://www.w3.org/2000/svg">
<path fill-rule="evenodd" clip-rule="evenodd" d="M6.37508 0.416016L6.60946 0.625977C6.73641 0.743164 7.40047 1.34863 8.08407 1.97363C8.76766 2.60352 9.36825 3.16016 9.41708 3.21875C9.50008 3.31641 9.50497 3.52148 9.50008 6.67578C9.50008 9.60059 9.49032 10.0596 9.42196 10.2158C9.3829 10.3184 9.29989 10.4551 9.24129 10.5137C9.1827 10.5771 9.05086 10.6748 8.95321 10.7236C8.77254 10.8115 8.62118 10.8164 1.21883 10.792L1.04305 10.6699C0.945396 10.6016 0.81356 10.4746 0.637779 10.2109L0.62313 5.74316C0.613364 2.84766 0.628013 1.21191 0.65731 1.09961C0.686607 1.00684 0.77938 0.855469 0.867271 0.762695C0.955161 0.669922 1.11629 0.557617 1.22372 0.508789C1.40438 0.430664 1.62899 0.420898 6.37508 0.416016ZM1.28231 1.25098C1.29208 9.68848 1.29696 10.0156 1.37508 10.084C1.44833 10.1475 1.92684 10.1572 5.05672 10.1572C8.18661 10.1572 8.66512 10.1475 8.73836 10.084C8.81649 10.0156 8.82137 9.7666 8.81649 6.87109V3.73633C6.79012 3.73633 6.64852 3.72656 6.4825 3.64355C6.38485 3.59473 6.24325 3.4873 6.16512 3.39941C6.09188 3.31641 6.01375 3.16504 5.98446 3.0625C5.96004 2.96484 5.93563 2.48145 5.93563 1.98828V1.09961C1.80477 1.09961 1.50204 1.10938 1.3995 1.17285L1.28231 1.25098ZM6.68758 2.97949C6.75106 3.07227 6.81942 3.08203 7.45907 3.0918C7.83993 3.10156 8.17196 3.0918 8.19149 3.06738C8.2159 3.04785 7.87899 2.70605 7.4493 2.31055C7.01961 1.91504 6.65829 1.58789 6.64364 1.58789C6.62899 1.58789 6.61922 1.88086 6.61922 2.2373C6.61922 2.7207 6.63387 2.90625 6.68758 2.97949ZM7.76668 12.1885H17.7764L17.9815 12.3105C18.1231 12.3887 18.2208 12.4961 18.2891 12.6377C18.3819 12.8379 18.3868 12.96 18.3868 21.876L18.2745 22.0957C18.1964 22.2471 18.0987 22.3496 17.6788 22.584H7.88875L7.64461 22.4619C7.47372 22.3789 7.36141 22.2812 7.15633 21.9248V12.7939L7.26864 12.6035C7.32723 12.4912 7.45907 12.3594 7.57137 12.2959L7.76668 12.1885ZM7.85946 12.9307C7.78622 13.0332 7.78133 13.4092 7.78622 17.1689C7.78622 19.4395 7.80575 21.3145 7.82528 21.334C7.84481 21.3535 8.58211 20.6553 9.46102 19.7812C10.628 18.6191 11.087 18.1943 11.17 18.1943C11.2481 18.1943 11.4923 18.4043 12.0001 18.917L12.7227 19.6348C15.1056 17.252 15.3057 17.0762 15.4327 17.0762C15.5597 17.0713 15.7257 17.2227 16.6388 18.1357L17.7032 19.1953C17.7032 12.9697 17.7032 12.9209 17.6056 12.8721C17.5421 12.8428 15.8136 12.8232 12.7227 12.8232H7.94247L7.85946 12.9307ZM13.2061 20.123L14.9884 21.9004C16.9903 21.9053 17.5421 21.8857 17.6007 21.8564C17.6934 21.8076 17.6983 21.7588 17.6983 20.9873V20.1719L15.4278 17.9014L13.2061 20.123ZM8.36239 21.8711C8.38192 21.8906 9.64168 21.9053 11.1602 21.9053C12.6788 21.9053 13.9386 21.8857 13.9581 21.8662C13.9776 21.8467 13.3624 21.1973 12.586 20.4258C11.8145 19.6543 11.17 19.0244 11.1554 19.0244C11.1456 19.0244 10.5011 19.6543 9.72469 20.4258C8.95321 21.1973 8.33797 21.8467 8.36239 21.8711ZM16.1847 3.44824L16.2872 3.58008C16.3848 3.71191 16.3848 3.77539 16.3848 9.91797L16.8829 9.39062C17.2589 8.99512 17.4151 8.86816 17.503 8.86816C17.5714 8.86816 17.6788 8.91699 17.7374 8.98047C17.8009 9.03906 17.8497 9.13184 17.8497 9.18555C17.8497 9.23926 17.7911 9.36133 17.713 9.4541C17.6397 9.55176 17.2686 9.96191 16.8927 10.3721C16.5167 10.7822 16.1749 11.1289 16.1261 11.1387C16.0772 11.1533 15.9942 11.1533 15.9405 11.1387C15.8868 11.124 15.4815 10.7188 15.0372 10.2354C14.3731 9.50781 14.2315 9.33203 14.2315 9.20996C14.2315 9.12695 14.2755 9.01953 14.3292 8.96582C14.3829 8.91211 14.4854 8.86816 14.5489 8.86816C14.6222 8.86816 14.7393 8.93164 14.8321 9.02441C14.92 9.1123 15.1495 9.36133 15.7013 9.9668L15.6964 4.08301H13.7579C11.9854 4.07812 11.8097 4.07324 11.7315 3.99512C11.6827 3.95117 11.6388 3.84863 11.6339 3.77051C11.629 3.6875 11.6681 3.58984 11.7169 3.53613C11.7999 3.45312 11.9415 3.44824 16.1847 3.44824ZM1.09188 13.4531C1.13583 13.4531 1.2286 13.4971 1.41415 13.6436L1.43856 18.0967H5.07625L4.71004 17.7646C4.50985 17.5791 4.27547 17.3691 4.18758 17.2959C4.05575 17.1885 4.02645 17.1348 4.02645 16.9736C4.02645 16.8223 4.05575 16.7588 4.13875 16.7051C4.19735 16.6611 4.29989 16.6318 4.35848 16.6318C4.43172 16.6318 4.76864 16.9053 5.37899 17.4619C6.18954 18.2041 6.28719 18.3115 6.28231 18.4385C6.27743 18.5215 6.22372 18.6387 6.16512 18.7021C6.10653 18.7705 5.70125 19.1416 5.27157 19.5371C4.84188 19.9277 4.46102 20.25 4.41708 20.25C4.37801 20.2549 4.31454 20.25 4.27059 20.2451C4.23153 20.2402 4.15829 20.2012 4.11434 20.1523C4.06063 20.1084 4.02645 20.0059 4.02645 19.9131C4.02645 19.7764 4.08993 19.6982 4.51473 19.3174C4.78329 19.0732 5.00301 18.8535 5.00301 18.8291C5.00301 18.7949 4.295 18.7803 2.97665 18.7803C1.01864 18.7803 0.950279 18.7754 0.852622 18.6826C0.759849 18.585 0.754966 18.5166 0.750083 13.6582L0.881919 13.5605C0.955161 13.502 1.05282 13.458 1.09188 13.4531ZM3.67001 4.32227C4.3243 4.32227 4.40731 4.33203 4.52938 4.41992C4.61727 4.48828 4.66122 4.56641 4.66122 4.6543C4.66122 4.72754 4.61239 4.83984 4.55379 4.90332C4.44637 5.00586 4.41219 5.01074 3.6993 5.01074C2.97176 5.01074 2.95223 5.00586 2.83016 4.88867C2.76668 4.82031 2.71297 4.72266 2.71297 4.66406C2.71297 4.61035 2.76668 4.5127 2.83016 4.44434C2.94735 4.33203 2.97176 4.32715 3.67001 4.32227ZM7.20028 6.08496L7.30282 6.2168C7.35653 6.29004 7.40047 6.37305 7.40047 6.40234C7.40047 6.42676 7.35653 6.50977 7.20028 6.71973H5.05184C2.97176 6.71973 2.9034 6.71484 2.80575 6.62207C2.75204 6.56836 2.70809 6.4707 2.70809 6.40234C2.70809 6.33398 2.75204 6.23633 2.80575 6.18262C2.9034 6.08496 2.97176 6.08496 7.20028 6.08496ZM2.91317 7.79395L5.02254 7.78906C6.97567 7.78906 7.1368 7.79395 7.24422 7.87695C7.32235 7.93555 7.36141 8.01855 7.36629 8.12109C7.37118 8.21387 7.337 8.31641 7.28817 8.36523C7.20516 8.44336 7.03914 8.45312 2.95223 8.47754L2.83016 8.35547C2.76668 8.28711 2.70809 8.18945 2.70321 8.14062C2.70321 8.0918 2.74715 7.99414 2.80575 7.9209L2.91317 7.79395ZM10.1348 13.917C10.3448 13.9268 10.5304 13.9707 10.6964 14.0537C10.8282 14.1221 11.0138 14.2637 11.1065 14.3662C11.1993 14.4736 11.3165 14.6543 11.3702 14.7764C11.4337 14.9229 11.4679 15.1035 11.4679 15.3135C11.4679 15.5234 11.4337 15.7041 11.3702 15.8506C11.3165 15.9727 11.1993 16.1582 11.1065 16.2607C11.0138 16.3633 10.8282 16.5049 10.6964 16.5732C10.5597 16.6367 10.3399 16.7051 10.2081 16.7197C10.0616 16.7344 9.85653 16.7148 9.6954 16.666C9.54403 16.627 9.3243 16.5195 9.20711 16.4268C9.06551 16.3193 8.92879 16.1533 8.82625 15.958C8.6993 15.7139 8.67 15.6016 8.67 15.3525C8.66512 15.1816 8.69442 14.9668 8.72372 14.874C8.7579 14.7812 8.84579 14.6104 8.91903 14.498C8.99715 14.3809 9.14364 14.2344 9.24129 14.166C9.34383 14.0977 9.51473 14.0098 9.62215 13.9707C9.74911 13.9219 9.92977 13.9023 10.1348 13.917ZM9.43172 14.9375C9.35848 15.0352 9.32918 15.1523 9.32918 15.3135C9.32918 15.4795 9.35848 15.5918 9.43172 15.6895C9.48543 15.7627 9.6075 15.875 9.70028 15.9385C9.80282 16.0068 9.93465 16.0508 10.0616 16.0508C10.169 16.0459 10.3302 16.0068 10.4278 15.9531C10.5304 15.8994 10.6427 15.7773 10.7061 15.6504C10.7696 15.5332 10.8184 15.3818 10.8184 15.3135C10.8184 15.2451 10.7696 15.0986 10.7061 14.9766C10.6427 14.8496 10.5304 14.7275 10.4278 14.6738C10.3302 14.625 10.1641 14.5811 10.0567 14.5811C9.92977 14.5811 9.79793 14.625 9.6954 14.6934C9.6075 14.752 9.48543 14.8643 9.43172 14.9375Z" fill="black"/>
</svg>
