<svg width="25" height="24" viewBox="0 0 25 24" fill="none" xmlns="http://www.w3.org/2000/svg">
    <path fill-rule="evenodd" clip-rule="evenodd" d="M10.25 14.25V21.75C10.25 22.3466 10.4863 22.9189 10.91 23.3411C11.33 23.763 11.9038 24 12.5 24H22.25C22.8463 24 23.42 23.763 23.84 23.3411C24.2637 22.9189 24.5 22.3466 24.5 21.75V12C24.5 11.4034 24.2637 10.8311 23.84 10.4089C23.42 9.987 22.8463 9.75 22.25 9.75H14.75V2.25C14.75 1.65338 14.5137 1.08113 14.09 0.658876C13.67 0.237001 13.0962 0 12.5 0C10.0475 0 5.2025 0 2.75 0C2.15375 0 1.58 0.237001 1.16 0.658876C0.736254 1.08113 0.5 1.65338 0.5 2.25V12C0.5 12.5966 0.736254 13.1689 1.16 13.5911C1.58 14.013 2.15375 14.25 2.75 14.25H10.25ZM2.375 18.3105V20.25C2.375 20.8466 2.61125 21.4189 3.035 21.8411C3.455 22.263 4.02875 22.5 4.625 22.5H8.75V21H4.625C4.42625 21 4.23499 20.9209 4.09624 20.7803C3.95374 20.6396 3.875 20.4487 3.875 20.25V18.3105L4.47124 18.9053L5.52876 17.8447L3.125 15.4395L0.721237 17.8447L1.77876 18.9053L2.375 18.3105ZM21.4437 16.875L14 12.3548V21.3952L21.4437 16.875ZM13.25 9.75V2.25C13.25 2.05125 13.1713 1.86037 13.0288 1.71975C12.89 1.57912 12.6987 1.5 12.5 1.5H2.75C2.55125 1.5 2.35999 1.57912 2.22124 1.71975C2.07874 1.86037 2 2.05125 2 2.25V12C2 12.1987 2.07874 12.3896 2.22124 12.5303C2.35999 12.6709 2.55125 12.75 2.75 12.75H10.25V12C10.25 11.4034 10.4863 10.8311 10.91 10.4089C11.33 9.987 11.9038 9.75 12.5 9.75H13.25ZM3.5 10.875H9.5V9.375H3.5V10.875ZM21.125 5.6895L20.5288 5.09475L19.4712 6.15525L21.875 8.5605L24.2788 6.15525L23.2212 5.09475L22.625 5.6895V3.75C22.625 3.15337 22.3887 2.58113 21.965 2.15888C21.545 1.737 20.9713 1.5 20.375 1.5H16.25V3H20.375C20.5737 3 20.765 3.07912 20.9038 3.21975C21.0463 3.36037 21.125 3.55125 21.125 3.75V5.6895ZM3.5 7.875H11.75V6.375H3.5V7.875ZM3.5 4.875H11.75V3.375H3.5V4.875Z" fill="black"/>
</svg>
