<svg width="20" height="24" viewBox="0 0 20 24" fill="none" xmlns="http://www.w3.org/2000/svg">
    <path d="M0.969272 11.6576H9.80014C10.0193 11.6576 10.2596 11.5042 10.2596 11.267V3.4314C10.2596 3.40405 10.2373 3.38178 10.21 3.38178H7.80237C7.15619 3.38178 6.57908 2.88917 6.57908 2.2268V0.0496133C6.57908 0.022269 6.5568 0 6.52944 0H0.969272C0.750026 0 0.509794 0.153812 0.509794 0.390899V11.267C0.509846 11.5042 0.75013 11.6576 0.969272 11.6576ZM2.83138 4.20434H4.46881C4.68002 4.20434 4.85092 4.3756 4.85092 4.58659C4.85092 4.79773 4.68018 4.96884 4.46881 4.96884H2.83138C2.62022 4.96884 2.44891 4.79768 2.44891 4.58659C2.44891 4.37571 2.62038 4.20434 2.83138 4.20434ZM2.83138 6.41312H7.93808C8.14924 6.41312 8.32014 6.58433 8.32014 6.79532C8.32014 7.00615 8.14909 7.17757 7.93808 7.17757H2.83138C2.62022 7.17757 2.44891 7.00641 2.44891 6.79532C2.44891 6.58412 2.62007 6.41312 2.83138 6.41312ZM2.83138 8.62117H7.93808C8.14893 8.62117 8.32014 8.79269 8.32014 9.00337C8.32014 9.2142 8.14909 9.38562 7.93808 9.38562H2.83138C2.62022 9.38562 2.44891 9.21446 2.44891 9.00337C2.44891 8.79248 2.62038 8.62117 2.83138 8.62117ZM7.34362 2.2268V0.601264C7.34362 0.55802 7.39497 0.535492 7.42684 0.564753L9.56722 2.53121C9.60054 2.56182 9.57887 2.61734 9.53364 2.61734H7.80237C7.58307 2.61734 7.34362 2.46389 7.34362 2.2268ZM15.1948 23.9153C15.2261 23.9466 15.204 24 15.1598 24H8.98814C8.94389 24 8.92176 23.9466 8.95306 23.9153L12.0386 20.831C12.0579 20.8117 12.0894 20.8117 12.1088 20.831L15.1948 23.9153ZM6.5327 19.9086C6.69324 20.0556 6.69365 20.3093 6.5327 20.4567L4.73894 22.1026C4.66758 22.1679 4.57711 22.2001 4.48726 22.2001C4.15023 22.2001 3.98529 21.7837 4.23526 21.5544L5.23112 20.641C5.26449 20.6104 5.24283 20.5549 5.19754 20.5549H0.872319C0.666908 20.5549 0.5 20.3881 0.5 20.1828V15.0193C0.5 14.814 0.666908 14.6472 0.872319 14.6472C1.07804 14.6472 1.24464 14.814 1.24464 15.0193V19.7611C1.24464 19.7885 1.26692 19.8107 1.29428 19.8107H5.19759C5.24283 19.8107 5.26449 19.7552 5.23117 19.7246L4.23531 18.8112C4.08395 18.6718 4.07379 18.4367 4.21293 18.2854C4.35175 18.1341 4.58732 18.1237 4.73899 18.2624L6.5327 19.9086ZM19.128 13.9468H8.57483C8.44824 13.9468 8.34165 14.0534 8.34165 14.1799V23.3539C8.34165 23.3981 8.39507 23.4202 8.42637 23.3889L11.8106 20.0067C11.956 19.8614 12.1918 19.862 12.3372 20.0067L13.7893 21.4579C13.8086 21.4772 13.8401 21.4772 13.8594 21.4579L16.5556 18.763C16.7004 18.6176 16.9367 18.6173 17.0819 18.763L19.2764 20.9562C19.3077 20.9875 19.3611 20.9654 19.3611 20.9211V14.1798C19.3612 14.0534 19.2543 13.9468 19.128 13.9468ZM10.8501 18.2656C9.98317 18.2656 9.27765 17.5605 9.27765 16.6941C9.27765 15.8273 9.98317 15.1225 10.8501 15.1225C11.7178 15.1225 12.4233 15.8273 12.4233 16.6941C12.4233 17.5606 11.7178 18.2656 10.8501 18.2656ZM19.4018 10.1621L17.7556 11.9554C17.6087 12.1156 17.3548 12.1165 17.2071 11.9554L15.5603 10.1621C15.4211 10.0109 15.431 9.77574 15.5823 9.637C15.7337 9.49795 15.9696 9.5081 16.1087 9.65937L17.0227 10.6546C17.0533 10.6879 17.1089 10.6663 17.1089 10.6211V4.29865C17.1089 4.2713 17.0866 4.24903 17.0592 4.24903H12.9607C12.7546 4.24903 12.5884 4.08253 12.5884 3.87699C12.5884 3.67107 12.7546 3.5052 12.9607 3.5052H17.4811C17.6866 3.5052 17.8532 3.67107 17.8532 3.87699V10.6211C17.8532 10.6663 17.9087 10.6879 17.9393 10.6546L18.8533 9.65937C18.9924 9.5081 19.2283 9.49795 19.3797 9.637C19.5311 9.77574 19.5409 10.0109 19.4018 10.1621ZM11.6787 16.6941C11.6787 17.1503 11.307 17.5215 10.8501 17.5215C10.3937 17.5215 10.0222 17.1503 10.0222 16.6941C10.0222 16.2375 10.3936 15.8666 10.8501 15.8666C11.3069 15.8666 11.6787 16.2375 11.6787 16.6941ZM19.3466 22.0785C19.3563 22.0881 19.3611 22.0999 19.3611 22.1136V23.767C19.3611 23.8947 19.2524 24 19.128 24H16.3528C16.3391 24 16.3274 23.9951 16.3177 23.9854L14.3855 22.0544C14.3662 22.035 14.3662 22.0036 14.3855 21.9842L16.7838 19.5873C16.8031 19.568 16.8346 19.568 16.8539 19.5873L19.3466 22.0785Z" fill="black"/>
</svg>
