<svg width="184" height="13" viewBox="0 0 184 13" fill="none" xmlns="http://www.w3.org/2000/svg">
<path d="M0.122272 0.121333C0.037262 0.173333 -0.0137445 1.00533 0.00325763 1.94133L0.037262 3.64C11.2757 3.64 12.6018 3.692 12.5678 3.848C12.5338 3.96933 9.71146 5.37333 6.31104 6.968L0.122272 9.84533L0.037262 13H22.6501V9.36C12.5848 9.36 9.72846 9.29067 9.81347 9.22133C9.91548 9.13467 12.8228 7.748 16.3083 6.136L22.6331 3.20667L22.6501 0C5.30791 0 0.207283 0.0520001 0.122272 0.121333ZM36.1667 0.121333C36.0817 0.173333 36.0307 3.10267 36.0477 6.62133L36.0817 13H58.6945V9.36H39.8222V8.32H58.6945V4.68H39.8222V3.64H58.6945V0C41.3524 0 36.2517 0.0520001 36.1667 0.121333ZM72.2112 0.121333C72.1262 0.173333 72.0922 2.37467 72.1092 5.00933C72.1262 7.644 72.2112 10.14 72.3132 10.5733C72.4152 11.0067 72.6362 11.5613 72.8233 11.8213C72.9933 12.0987 73.4523 12.4627 73.8264 12.6533C74.4725 12.9827 74.8465 13 83.4326 13C89.3323 13 92.5117 12.9307 92.8177 12.8093C93.0898 12.7227 93.5148 12.428 93.7869 12.168C94.0589 11.908 94.3819 11.44 94.5009 11.128C94.688 10.6947 94.739 9.39467 94.739 5.28667V0H91.1685C91.1855 7.904 91.1345 8.97867 90.9645 9.13467C90.7945 9.308 88.9923 9.34267 83.3476 9.308L75.9516 9.27333L75.8666 0C73.1463 0 72.2962 0.0520001 72.2112 0.121333ZM108.171 0.208C108.171 0.329333 108.562 1.43867 109.038 2.68667C109.514 3.93467 110.041 5.28667 110.211 5.72L110.517 6.5L108.069 12.9133C110.721 12.9827 111.571 12.9827 111.656 12.9307C111.741 12.896 112.251 11.8387 112.761 10.5907L113.696 8.32L125.411 8.40667L127.315 12.9133C130.256 12.9827 130.953 12.9307 130.953 12.8267C130.953 12.7227 130.409 11.2667 129.746 9.568L128.556 6.5C130.409 1.73333 130.953 0.26 130.953 0.173333C130.953 0.0693333 130.256 0.0173335 129.134 0.0346668L127.315 0.0866667L125.411 4.59333L113.696 4.69733L111.809 0.0866667C108.613 0 108.188 0.0346668 108.171 0.208ZM144.3 0.121333C144.215 0.173333 144.164 3.10267 144.181 6.62133L144.215 13H147.956V0C145.235 0 144.385 0.0520001 144.3 0.121333ZM163.104 0.329334C162.679 0.502667 162.203 0.866666 162.033 1.144C161.863 1.42133 161.642 2.08 161.54 2.6C161.421 3.13733 161.387 4.12533 161.455 4.90533C161.506 5.63333 161.676 6.46533 161.812 6.76C161.948 7.05467 162.356 7.488 162.696 7.76533L163.308 8.23333L180.345 8.40667V9.27333L161.387 9.36V13H181.705C183.031 12.3067 183.337 11.9947 183.626 11.44C183.949 10.7813 184 10.3827 184 8.87467C184 7.904 183.915 6.89867 183.813 6.63867C183.728 6.36133 183.439 5.928 183.184 5.668C182.929 5.39067 182.572 5.07867 182.385 4.97467C182.147 4.81867 179.579 4.74933 173.629 4.68L165.213 4.59333L165.128 3.64H184V0C164.516 0 163.802 0.0346669 163.104 0.329334Z" fill="#1E1E1E"/>
</svg>
