<svg width="60" height="60" viewBox="0 0 60 60" fill="none" xmlns="http://www.w3.org/2000/svg">
<path d="M0 5C0 2.23858 2.23858 0 5 0H55C57.7614 0 60 2.23858 60 5V55C60 57.7614 57.7614 60 55 60H5C2.23858 60 0 57.7614 0 55V5Z" fill="#E8E8E8"/>
<path d="M16.5 32.9988L24.3 32.9988C25.05 30.5988 27.6 29.3988 30 30.2988C31.35 30.7488 32.25 31.7988 32.7 32.9988L43.5 32.9988C44.4 32.9988 45 33.5988 45 34.4988C45 35.3988 44.4 35.9988 43.5 35.9988L32.7 35.9988C31.95 38.3988 29.4 39.5988 27 38.6988C25.65 38.2488 24.75 37.1988 24.3 35.9988L16.5 35.9988C15.6 35.9988 15 35.3988 15 34.4988C15 33.5988 15.6 32.9988 16.5 32.9988ZM16.5 23.9988L36.3 23.9988C37.05 21.5988 39.75 20.3988 42 21.2988C44.25 22.1988 45.6 24.7488 44.7 26.9988C43.8 29.2488 41.25 30.5988 39 29.6988C37.65 29.2488 36.75 28.1988 36.3 26.9988L16.5 26.9988C15.6 26.9988 15 26.3988 15 25.4988C15 24.5988 15.6 23.9988 16.5 23.9988Z" fill="black"/>
</svg>
