<svg width="60" height="60" viewBox="0 0 60 60" fill="none" xmlns="http://www.w3.org/2000/svg">
<rect width="60" height="60" rx="5" fill="#E8E8E8"/>
<path d="M29.6964 20.1279L29.5623 20.2525C29.3114 21.6633 29.1601 22.4579 29.0639 22.9293C28.9711 23.4007 28.8233 24.0606 28.7374 24.3939C28.6549 24.7273 28.4761 25.3165 28.3455 25.7071C28.2115 26.0976 28.0361 26.5522 27.9537 26.7172C27.8574 26.9091 27.7268 27.101 27.6031 27.2357C27.4931 27.3535 27.304 27.5152 27.1803 27.5926C27.0565 27.6734 26.8022 27.8114 26.6131 27.9057C26.4241 27.9966 26.015 28.1717 25.7022 28.2929C25.3894 28.4141 24.8566 28.596 24.5164 28.7003C24.1761 28.8013 23.5745 28.9697 23.1758 29.0741C22.7805 29.1785 22.1756 29.3401 21.8353 29.431C21.3953 29.5488 21.1925 29.6162 21.1375 29.67C21.0928 29.7138 21.0412 29.8013 21.0206 29.8653C20.9931 29.9529 20.9931 30.0202 21.0206 30.1279C21.0447 30.2088 21.1031 30.303 21.1581 30.3468C21.2131 30.3906 21.4194 30.4646 21.6806 30.532C21.9178 30.596 22.5296 30.7576 23.0383 30.8923C23.5505 31.0303 24.262 31.2323 24.6195 31.3468C24.9804 31.4613 25.5063 31.6465 25.7882 31.7576C26.0735 31.8687 26.4825 32.0505 26.699 32.1582C26.9156 32.2626 27.1906 32.4209 27.3109 32.5051C27.4277 32.5892 27.5893 32.7407 27.6684 32.8384C27.744 32.9327 27.8849 33.165 27.9743 33.3502C28.0636 33.5354 28.2321 33.9596 28.3455 34.2929C28.4589 34.6263 28.6239 35.1684 28.7099 35.4983C28.7958 35.8249 28.9402 36.468 29.033 36.9293C29.1258 37.3872 29.2839 38.2088 29.3836 38.7542L29.5623 39.7475C29.8132 39.9865 29.8476 40 29.9988 40C30.1134 40 30.2051 39.9776 30.2738 39.9327C30.3288 39.8956 30.3941 39.835 30.4113 39.798C30.4319 39.7609 30.5213 39.303 30.6176 38.7778C30.7104 38.2559 30.8479 37.532 30.9235 37.1717C30.9991 36.8114 31.1057 36.3098 31.1675 36.0606C31.226 35.8114 31.3428 35.3636 31.4253 35.0673C31.5078 34.771 31.6488 34.3232 31.7347 34.0741C31.8206 33.8249 31.9684 33.468 32.0612 33.2828C32.1575 33.0909 32.2984 32.8687 32.3946 32.7643C32.484 32.6667 32.6593 32.5185 32.7831 32.4377C32.9068 32.3603 33.2162 32.1953 33.4705 32.0774C33.7249 31.9562 34.1202 31.7912 34.347 31.7071C34.5739 31.6229 35.0689 31.4579 35.447 31.3367C35.8251 31.2155 36.5366 31.0168 37.0281 30.8956C37.5197 30.7744 38.0765 30.6296 38.2656 30.5724C38.4546 30.5152 38.6746 30.4377 38.7571 30.4007C38.8499 30.3603 38.9221 30.2963 38.9564 30.229C38.9977 30.1515 39.008 30.0673 38.9943 29.9495C38.9805 29.8249 38.9496 29.7576 38.8774 29.6869C38.8018 29.6162 38.6712 29.5657 38.2656 29.4579C37.9837 29.3838 37.3856 29.2256 36.9422 29.1077C36.4988 28.9899 35.9041 28.8215 35.6188 28.7374C35.337 28.6498 34.8936 28.5017 34.6392 28.4108C34.3848 28.3165 33.9517 28.1414 33.6768 28.0236C33.4018 27.9024 33.0787 27.7475 32.9549 27.6768C32.8312 27.6061 32.649 27.4747 32.5459 27.3872C32.4462 27.2963 32.295 27.1145 32.2125 26.9865C32.1334 26.8586 32.0097 26.6229 31.9409 26.4646C31.8722 26.3064 31.7312 25.936 31.6316 25.6397C31.5284 25.3434 31.3841 24.8519 31.305 24.5455C31.226 24.2391 31.1091 23.7306 31.0438 23.4175C30.9785 23.1044 30.8341 22.3468 30.7207 21.734C30.6107 21.1246 30.5007 20.5387 30.4766 20.4377C30.4457 20.2963 30.4079 20.2222 30.3048 20.1279C30.1879 20.0135 30.1501 20 29.9988 20C29.851 20 29.8132 20.0135 29.6964 20.1279Z" fill="black"/>
</svg>
