<svg width="24" height="24" viewBox="0 0 24 24" fill="none" xmlns="http://www.w3.org/2000/svg">
<path d="M23.707 22.293L16.882 15.468C18.204 13.835 19 11.76 19 9.50002C19 4.26202 14.738 0 9.49997 0C4.26197 0 0 4.26197 0 9.49997C0 14.738 4.26202 19 9.50002 19C11.76 19 13.835 18.204 15.468 16.882L22.293 23.707C22.488 23.902 22.744 24 23 24C23.256 24 23.512 23.902 23.707 23.707C24.098 23.316 24.098 22.684 23.707 22.293ZM9.50002 17C5.364 17 2.00002 13.636 2.00002 9.49997C2.00002 5.36395 5.364 1.99997 9.50002 1.99997C13.636 1.99997 17 5.36395 17 9.49997C17 13.636 13.636 17 9.50002 17Z" fill="#8E8E8E"/>
</svg>
